<svg height="666.66669" viewBox="0 0 666.66669 666.66669" width="666.66669" xmlns="http://www.w3.org/2000/svg" xmlns:xlink="http://www.w3.org/1999/xlink"><clipPath id="a"><path d="m0 500h500v-500h-500z"/></clipPath><g clip-path="url(#a)" transform="matrix(1.3333333 0 0 -1.3333333 0 666.66667)"><path d="m469.196 320.605c.929.571 1.442 1.562 1.442 2.579 0 .526-.137 1.059-.426 1.543-.846 1.419-2.676 1.897-4.107 1.07 0 0-42.52-24.549-63.573-36.704 14.864 9.02 50.99 30.941 50.99 30.941.936.568 1.454 1.564 1.454 2.586 0 .523-.135 1.053-.421 1.535-.845 1.426-2.678 1.906-4.111 1.078 0 0-53.905-31.122-102.911-59.415h32.391c41.123 25.238 89.272 54.787 89.272 54.787" fill="#005bbb"/><path d="m457.832 266.532c-.849 1.414-2.674 1.887-4.102 1.062 0 0-1.249-.72-3.076-1.776h7.486c-.071.245-.171.485-.308.714" fill="#005bbb"/><path d="m468.375 284.881c.935.569 1.452 1.564 1.452 2.585 0 .524-.136 1.055-.422 1.537-.844 1.424-2.676 1.904-4.11 1.077 0 0-14.116-8.15-15.832-9.141.972.587 11.667 7.054 11.667 7.054.938.568 1.459 1.565 1.459 2.588 0 .523-.136 1.053-.421 1.534-.842 1.427-2.677 1.908-4.11 1.08 0 0-22.291-12.869-47.418-27.377h26.381c10.583 6.435 31.354 19.063 31.354 19.063" fill="#005bbb"/><path d="m461.779 273.021c.935.568 1.451 1.563 1.451 2.584 0 .525-.136 1.055-.421 1.538-.845 1.423-2.677 1.903-4.11 1.076 0 0-13.886-8.016-21.479-12.401h12.718c6.098 3.71 11.841 7.203 11.841 7.203" fill="#005bbb"/><path d="m451.22 329.829c.926.57 1.438 1.561 1.438 2.576 0 .528-.137 1.06-.427 1.544-.845 1.42-2.675 1.896-4.105 1.07 0 0-29.934-17.281-38.468-22.209 9.431 5.696 40.537 24.487 40.537 24.487.94.567 1.46 1.566 1.46 2.589 0 .522-.135 1.052-.42 1.534-.842 1.427-2.677 1.908-4.111 1.08 0 0-48.662-28.094-79.803-46.073 40.121 24.451 94.859 57.808 94.859 57.808.932.57 1.449 1.564 1.449 2.584 0 .524-.137 1.055-.424 1.538-.844 1.424-2.676 1.902-4.108 1.076 0 0-31.779-18.348-40.726-23.514 3.795 2.286 25.134 15.138 25.134 15.138.942.567 1.464 1.565 1.464 2.59 0 .522-.135 1.051-.419 1.532-.842 1.428-2.677 1.91-4.113 1.082 0 0-36.508-21.077-49.88-28.798 17.929 10.833 59.271 35.811 59.271 35.811.938.568 1.459 1.566 1.459 2.589 0 .522-.135 1.052-.422 1.534-.842 1.427-2.676 1.908-4.11 1.08 0 0-67.366-38.894-128.609-74.251 61.667 37.783 128.99 79.032 128.99 79.032.93.57 1.444 1.561 1.444 2.578 0 .527-.138 1.059-.426 1.543-.844 1.42-2.675 1.898-4.107 1.071 0 0-12.219-7.054-13.217-7.631.002.001.616.37.616.37.946.566 1.47 1.567 1.47 2.595 0 .52-.135 1.048-.418 1.528-.841 1.43-2.678 1.915-4.115 1.085 0 0-61.82-35.691-114.787-66.272 59.919 36.684 126.279 77.313 126.279 77.313.931.569 1.444 1.561 1.444 2.579 0 .525-.136 1.057-.424 1.542-.845 1.42-2.675 1.898-4.107 1.072 0 0-67.196-38.796-127.503-73.614 49.327 30.186 108.449 66.365 108.449 66.365.93.569 1.445 1.562 1.445 2.58 0 .525-.137 1.057-.425 1.541-.846 1.421-2.676 1.899-4.108 1.073 0 0-61.807-35.685-113.722-65.658 53.129 32.475 115.396 70.537 115.396 70.537.931.569 1.447 1.562 1.447 2.58 0 .525-.137 1.057-.424 1.54-.846 1.422-2.676 1.901-4.109 1.074 0 0-58.458-33.751-101.016-58.322 34.612 21.029 87.033 52.879 87.033 52.879.934.567 1.452 1.564 1.452 2.585 0 .523-.137 1.053-.423 1.537-.842 1.423-2.676 1.904-4.11 1.076 0 0-59.881-34.572-107.474-62.05 44.405 27.084 101.706 62.033 101.706 62.033.933.568 1.449 1.562 1.449 2.581 0 .525-.137 1.056-.424 1.539-.659 1.113-1.922 1.626-3.127 1.412.713.584 1.122 1.434 1.122 2.32 0 .52-.134 1.047-.417 1.529-.841 1.43-2.678 1.913-4.114 1.084 0 0-90.797-52.421-178.862-103.266 22.945 14.421 55.716 35.018 55.716 35.018.912.572 1.414 1.555 1.414 2.56 0 .532-.14 1.069-.433 1.557-.85 1.41-2.673 1.88-4.099 1.057 0 0-24.517-14.156-34.923-20.164 6.828 4.253 26.917 16.762 26.917 16.762.918.573 1.425 1.559 1.425 2.568 0 .53-.14 1.066-.432 1.552-.848 1.414-2.673 1.886-4.101 1.062 0 0-32.183-18.581-54.926-31.712 19.397 12.243 48.803 30.803 48.803 30.803.909.574 1.409 1.554 1.409 2.559 0 .531-.141 1.07-.436 1.559-.851 1.408-2.672 1.877-4.097 1.053 0 0-36.979-21.349-70.399-40.644 32.776 21.036 68.926 44.241 68.926 44.241.897.576 1.391 1.549 1.391 2.545 0 .536-.143 1.078-.443 1.569-.852 1.402-2.67 1.865-4.09 1.045 0 0-33.049-19.081-58.165-33.582 28.468 18.049 63.435 40.217 63.435 40.217.907.575 1.405 1.553 1.405 2.554 0 .533-.142 1.073-.438 1.561-.851 1.407-2.671 1.875-4.095 1.053 0 0-37.723-21.779-72.993-42.143 29.701 19.166 63.002 40.658 63.002 40.658.894.576 1.383 1.547 1.383 2.54 0 .538-.143 1.081-.443 1.572-.559.917-1.532 1.426-2.534 1.441.225.432.351.911.351 1.4 0 .524-.138 1.057-.425 1.54-.696 1.169-2.055 1.694-3.314 1.386.205.126 4.246 2.623 4.246 2.623.922.572 1.433 1.561 1.433 2.574 0 .527-.138 1.062-.428 1.546-.847 1.418-2.675 1.893-4.105 1.067 0 0-39.681-22.91-77.899-44.976 29.982 19.412 63.122 40.869 63.122 40.869.893.576 1.38 1.547 1.38 2.538 0 .539-.144 1.083-.444 1.575-.855 1.397-2.669 1.859-4.089 1.038 0 0-23.877-13.785-36.191-20.895 16.43 10.388 43.338 27.398 43.338 27.398.908.575 1.407 1.554 1.407 2.557 0 .532-.142 1.071-.436 1.56-.851 1.408-2.672 1.876-4.097 1.053 0 0-4.924-2.843-5.251-3.032.46.548.72 1.232.72 1.937 0 .528-.139 1.063-.43 1.549-.847 1.415-2.674 1.889-4.103 1.063 0 0-32.664-18.859-61.861-35.715 27.768 18.026 59.044 38.33 59.044 38.33.889.577 1.375 1.546 1.375 2.536 0 .539-.143 1.084-.445 1.575-.856 1.397-2.668 1.857-4.087 1.039 0 0-25.537-14.743-42.783-24.701 10.29 6.612 30.045 19.306 30.045 19.306.897.576 1.389 1.549 1.389 2.544 0 .537-.143 1.08-.442 1.57-.854 1.401-2.67 1.865-4.09 1.044 0 0-16.334-9.43-23.361-13.487 4.128 2.67 16.789 10.862 16.789 10.862.893.577 1.381 1.548 1.381 2.54 0 .538-.143 1.082-.444 1.573-.855 1.398-2.669 1.859-4.088 1.041 0 0-21.802-12.587-40.336-23.29 12.14 8.232 29.122 19.747 29.122 19.747.86.583 1.327 1.533 1.327 2.503 0 .549-.149 1.104-.462 1.602-.864 1.377-2.662 1.825-4.07 1.012 0 0-22.425-12.946-44.508-25.696 13.232 9.49 28.557 20.481 28.557 20.481.82.59 1.261 1.516 1.261 2.458 0 .562-.157 1.13-.483 1.636-.873 1.353-2.655 1.784-4.049.979 0 0-12.786-7.383-24.872-14.36 4.596 3.664 11.656 9.296 11.656 9.296.744.594 1.138 1.473 1.138 2.364 0 .587-.173 1.181-.526 1.7-.891 1.306-2.638 1.704-4.007.914l-30.838-17.804c-.97-.561-1.512-1.576-1.512-2.62 0-.512.131-1.032.406-1.508.54-.935 1.508-1.461 2.513-1.497-6.207-4.951-14.107-11.25-14.107-11.25-.744-.594-1.136-1.474-1.136-2.364 0-.588.171-1.181.524-1.701.892-1.305 2.638-1.705 4.008-.914 0 0 5.392 3.113 6.74 3.892-13.232-9.49-28.557-20.481-28.557-20.481-.82-.588-1.261-1.515-1.261-2.458 0-.562.158-1.13.483-1.636.873-1.353 2.655-1.784 4.05-.978 0 0 15.511 8.955 25.116 14.5-12.145-8.234-29.131-19.75-29.131-19.75-.859-.583-1.325-1.533-1.325-2.503 0-.548.149-1.104.462-1.601.862-1.379 2.662-1.826 4.07-1.013 0 0 8.01 4.625 9.465 5.465-4.138-2.678-16.812-10.877-16.812-10.877-.892-.578-1.381-1.548-1.381-2.54 0-.538.144-1.082.445-1.574.854-1.397 2.668-1.86 4.088-1.04 0 0 12.801 7.391 16.568 9.566-10.264-6.596-30.001-19.278-30.001-19.278-.898-.575-1.39-1.548-1.39-2.544 0-.536.144-1.079.443-1.57.853-1.401 2.669-1.864 4.09-1.043 0 0 28.871 16.668 52.642 30.391-27.788-18.038-59.073-38.347-59.073-38.347-.889-.578-1.375-1.547-1.375-2.538 0-.539.144-1.083.446-1.575.855-1.397 2.668-1.857 4.086-1.038 0 0 3.888 2.244 4.09 2.361-.46-.549-.722-1.232-.722-1.937 0-.528.14-1.063.43-1.549.848-1.416 2.675-1.889 4.103-1.064 0 0 22.34 12.898 32.962 19.03-16.423-10.382-43.325-27.39-43.325-27.39-.908-.574-1.408-1.554-1.408-2.556 0-.533.141-1.072.436-1.561.851-1.408 2.671-1.875 4.096-1.054 0 0 33.651 19.429 63.831 36.854-29.98-19.41-63.119-40.865-63.119-40.865-.891-.577-1.38-1.548-1.38-2.539 0-.538.144-1.082.445-1.574.856-1.398 2.668-1.859 4.088-1.04 0 0 6.003 3.466 6.447 3.723-.005-.003-.649-.401-.649-.401-.924-.572-1.433-1.56-1.433-2.574 0-.527.138-1.061.428-1.546.394-.659 1.004-1.098 1.682-1.314-.104-.064-3.032-1.854-3.032-1.854-.93-.57-1.445-1.563-1.445-2.581 0-.525.138-1.057.425-1.541.845-1.422 2.676-1.9 4.108-1.073 0 0 36.014 20.794 68.977 39.824-29.707-19.171-63.012-40.663-63.012-40.663-.894-.577-1.384-1.548-1.384-2.541 0-.537.143-1.081.443-1.573.328-.536.799-.934 1.334-1.176h2.492c.089.041.177.085.263.135 0 0 30.688 17.717 52.411 30.259-16.485-10.451-35.156-22.287-47.943-30.394h13.597c13.577 7.839 30.776 17.768 47.287 27.301-14.687-9.427-30.049-19.286-42.536-27.301h15.029c3.73 2.153 7.356 4.246 10.673 6.161-3.057-1.929-6.363-4.015-9.763-6.161h58.488c5.415 3.126 10.718 6.188 15.747 9.091-4.846-2.954-9.845-6.003-14.906-9.091h33.622c5.23 3.019 10.45 6.034 15.613 9.014-4.858-2.969-9.792-5.985-14.747-9.014h17.993c.768.443 1.534.886 2.299 1.327-.721-.441-1.444-.884-2.169-1.327h18.453c2.508 1.449 5.011 2.893 7.503 4.333-2.349-1.44-4.71-2.884-7.076-4.333h117.541c49.731 30.601 104.024 64.011 104.024 64.011" fill="#005bbb"/><path d="m465.582 300.864c.928.57 1.439 1.562 1.439 2.577 0 .527-.136 1.059-.425 1.544-.846 1.42-2.676 1.897-4.107 1.071 0 0-9.976-5.761-10.776-6.223.56.338 8.916 5.383 8.916 5.383.939.567 1.461 1.565 1.461 2.588 0 .523-.136 1.052-.421 1.534-.842 1.427-2.677 1.909-4.112 1.08 0 0-42.882-24.758-77.251-44.6h28.242c29.911 18.38 57.034 35.046 57.034 35.046" fill="#005bbb"/><g fill="#ffd500"><path d="m104.489 200.776c-.93-.569-1.445-1.562-1.445-2.58 0-.524.138-1.057.425-1.541.845-1.422 2.676-1.899 4.108-1.072 0 0 62.381 36.017 121.651 70.235h-18.453c-48.877-29.911-106.286-65.042-106.286-65.042"/><path d="m59.817 265.818h-2.492c.773-.348 1.681-.369 2.492 0"/><path d="m49.088 256.017c-.906-.575-1.404-1.553-1.404-2.555 0-.532.142-1.072.437-1.561.852-1.407 2.672-1.875 4.096-1.052 0 0 10.679 6.166 25.928 14.969h-13.597c-9.278-5.882-15.46-9.801-15.46-9.801"/><path d="m91.985 204.285c-.932-.569-1.447-1.562-1.447-2.58 0-.525.137-1.057.424-1.541.846-1.422 2.676-1.9 4.108-1.073 0 0 61.453 35.479 115.575 66.727h-17.993c-49.258-30.109-100.667-61.533-100.667-61.533"/><path d="m347.533 265.818c-1.824-1.053-3.643-2.104-5.451-3.147 1.697 1.045 3.403 2.094 5.114 3.147h-117.541c-57.934-35.469-119.184-72.968-119.184-72.968-.93-.57-1.444-1.563-1.444-2.579 0-.527.136-1.059.424-1.543.73-1.227 2.191-1.736 3.499-1.324-.17-.101-5.263-3.153-5.263-3.153-.944-.565-1.468-1.566-1.468-2.594 0-.521.134-1.049.417-1.529.841-1.43 2.678-1.914 4.114-1.085 0 0 70.44 40.669 135.87 78.444-61.644-37.769-128.955-79.01-128.955-79.01-.929-.57-1.442-1.561-1.442-2.579 0-.526.137-1.057.424-1.542.845-1.42 2.676-1.899 4.108-1.071 0 0 44.874 25.907 66.095 38.159-17.912-10.822-59.239-35.791-59.239-35.791-.938-.568-1.458-1.565-1.458-2.589 0-.522.135-1.051.42-1.534.842-1.426 2.677-1.908 4.111-1.079 0 0 24.42 14.098 29.439 16.995-3.816-2.298-25.206-15.179-25.206-15.179-.94-.567-1.462-1.566-1.462-2.591 0-.523.135-1.051.419-1.532.842-1.428 2.677-1.911 4.112-1.082 0 0 58.535 33.794 103.581 59.802-40.103-24.44-94.829-57.792-94.829-57.792-.933-.568-1.45-1.563-1.45-2.583 0-.524.136-1.054.423-1.539.844-1.423 2.676-1.901 4.109-1.074 0 0 28.457 16.43 36.087 20.834-9.418-5.689-40.507-24.469-40.507-24.469-.94-.566-1.46-1.565-1.46-2.588 0-.522.136-1.051.421-1.534.842-1.427 2.677-1.908 4.112-1.08 0 0 61.184 35.324 116.066 67.011-51.055-31.418-109.157-67.17-109.157-67.17-.925-.57-1.437-1.562-1.437-2.576 0-.527.138-1.061.427-1.545.846-1.419 2.674-1.896 4.106-1.07 0 0 38.337 22.135 55.05 31.785-14.874-9.026-51.007-30.953-51.007-30.953-.937-.567-1.455-1.563-1.455-2.585 0-.524.137-1.053.422-1.537.844-1.424 2.677-1.905 4.11-1.077 0 0 58.693 33.887 108.602 62.701-42.274-25.944-95.317-58.497-95.317-58.497-.929-.569-1.442-1.561-1.442-2.577 0-.526.138-1.059.426-1.544.846-1.419 2.676-1.896 4.107-1.07 0 0 9.577 5.528 10.313 5.953-.575-.346-9.02-5.444-9.02-5.444-.938-.567-1.459-1.565-1.459-2.589 0-.523.135-1.052.42-1.533.842-1.427 2.677-1.909 4.112-1.08 0 0 50.063 28.904 88.161 50.9-39.163-24.066-89.578-55.044-89.578-55.044-.926-.57-1.439-1.56-1.439-2.577 0-.526.137-1.059.426-1.543.846-1.42 2.675-1.897 4.107-1.07 0 0 12.283 7.091 13.563 7.831-.966-.583-11.633-7.034-11.633-7.034-.94-.567-1.46-1.564-1.46-2.587 0-.524.137-1.053.421-1.535.843-1.426 2.677-1.908 4.112-1.08 0 0 32.445 18.733 44.512 25.701-8.134-4.947-35.126-21.358-35.126-21.358-.934-.568-1.451-1.562-1.451-2.583 0-.525.135-1.056.422-1.538.843-1.424 2.676-1.904 4.109-1.076 0 0 22.156 12.792 27.384 15.809-4.549-2.767-25.187-15.319-25.187-15.319-.934-.568-1.451-1.563-1.451-2.585 0-.523.136-1.055.422-1.538.845-1.423 2.676-1.903 4.111-1.074 0 0 47.41 27.372 87.552 50.548-31.349-19.508-72.315-44.999-72.315-44.999-.919-.573-1.426-1.558-1.426-2.568 0-.529.14-1.065.431-1.552.848-1.414 2.674-1.886 4.102-1.063 0 0 25.365 14.646 34.329 19.82-8.596-5.287-33.263-20.458-33.263-20.458-.927-.569-1.438-1.56-1.438-2.576 0-.526.137-1.059.425-1.544.846-1.42 2.676-1.895 4.106-1.07 0 0 44.404 25.636 84.566 48.822-32.347-20.407-70.872-44.711-70.872-44.711-.909-.573-1.409-1.553-1.409-2.558 0-.532.141-1.071.435-1.559.851-1.408 2.672-1.877 4.097-1.056 0 0 36.895 21.303 67.804 39.148-18.128-11.502-45.712-29.005-45.712-29.005-.906-.574-1.404-1.553-1.404-2.555 0-.532.142-1.073.438-1.561.852-1.407 2.671-1.873 4.096-1.051 0 0 35.729 20.629 71.118 41.06-12.526-8.343-30.904-20.585-30.904-20.585-.873-.581-1.347-1.54-1.347-2.518 0-.544.147-1.095.455-1.59.86-1.387 2.665-1.839 4.077-1.023l90.508 52.253c1.444.835 1.94 2.683 1.104 4.128-.833 1.445-2.68 1.939-4.127 1.105 0 0-7.259-4.191-8.805-5.084 12.539 8.353 30.926 20.6 30.926 20.6.871.581 1.346 1.539 1.346 2.516 0 .546-.147 1.096-.455 1.591-.86 1.387-2.664 1.839-4.078 1.024 0 0-19.476-11.246-27.693-15.99 18.118 11.496 45.698 28.997 45.698 28.997.905.575 1.403 1.553 1.403 2.553 0 .534-.141 1.073-.437 1.563-.852 1.406-2.672 1.873-4.096 1.051 0 0-34.128-19.704-59.526-34.368 32.316 20.389 70.825 44.683 70.825 44.683.909.574 1.409 1.553 1.409 2.557 0 .533-.141 1.072-.436 1.559-.849 1.409-2.67 1.878-4.096 1.056 0 0-22.83-13.181-29.917-17.273 8.603 5.292 33.28 20.469 33.28 20.469.927.57 1.439 1.561 1.439 2.576 0 .527-.138 1.06-.426 1.545-.847 1.419-2.676 1.895-4.107 1.069 0 0-37.746-21.792-63.951-36.922 31.368 19.52 72.343 45.016 72.343 45.016.919.573 1.425 1.558 1.425 2.568 0 .281-.041.562-.122.838h-7.486c-4.5-2.597-12.512-7.224-14.099-8.14 2.156 1.312 7.913 4.813 13.383 8.14h-12.718c-1.72-.993-3.118-1.8-3.958-2.285.997.606 2.279 1.385 3.759 2.285h-26.381c-11.575-6.682-23.752-13.714-34.629-19.993 10.435 6.413 21.671 13.316 32.537 19.993h-28.242c-2.188-1.264-4.343-2.507-6.449-3.723 2.001 1.227 4.026 2.47 6.067 3.723z"/><path d="m56.5 248.875c-.898-.576-1.39-1.55-1.39-2.545 0-.536.143-1.079.442-1.569.853-1.401 2.669-1.865 4.091-1.045 0 0 20.342 11.745 38.282 22.102h-15.029c-15.38-9.872-26.396-16.943-26.396-16.943"/><path d="m71.351 212.869c-.933-.568-1.45-1.563-1.45-2.582 0-.524.138-1.056.424-1.539.845-1.423 2.677-1.902 4.109-1.075 0 0 54.253 31.322 90.888 52.474-34.621-21.036-87.046-52.887-87.046-52.887-.936-.568-1.452-1.564-1.452-2.584 0-.525.135-1.056.421-1.537.844-1.426 2.677-1.905 4.11-1.077 0 0 55.716 32.166 110.431 63.756h-33.622c-41.33-25.208-86.813-52.949-86.813-52.949"/><path d="m59.774 241.164c-.909-.574-1.409-1.555-1.409-2.558 0-.532.14-1.071.435-1.559.851-1.407 2.673-1.877 4.097-1.055 0 0 22.368 12.915 30.839 17.805-6.823-4.249-26.906-16.755-26.906-16.755-.919-.572-1.426-1.558-1.426-2.567 0-.53.14-1.066.431-1.552.849-1.415 2.674-1.888 4.102-1.063 0 0 31.513 18.195 52.199 30.137-22.948-14.423-55.723-35.02-55.723-35.02-.911-.574-1.413-1.555-1.413-2.561 0-.531.139-1.069.434-1.557.849-1.41 2.671-1.88 4.097-1.056 0 0 8.572 4.947 9.074 5.238-.391-.525-.622-1.15-.622-1.799 0-.52.134-1.048.417-1.528.841-1.431 2.678-1.915 4.116-1.085 0 0 39.733 22.939 74.807 43.189h-58.488c-18.184-11.477-39.061-24.654-39.061-24.654"/></g></g></svg>